<svg xmlns="http://www.w3.org/2000/svg" xmlns:xlink="http://www.w3.org/1999/xlink" enable-background="new 0 0 50 50" height="28.609625722993144" version="1.1" width="28.609625722993215" xml:space="preserve"><rect id="backgroundrect" width="100%" height="100%" x="0" y="0" fill="none" stroke="none" class="" style=""/><g class="currentLayer" style=""><title>Layer 1</title><g id="svg_1" class=""><g id="svg_2"><path d="M28.60962553667683,25.88198383801006 C28.60962553667683,27.388566718771465 27.388566718771465,28.60962553667683 25.88198383801006,28.60962553667683 H2.727641698666769 C1.2210588179053672,28.60962553667683 0,27.388566718771465 0,25.88198383801006 V2.727641698666769 C0,1.2210588179053672 1.2210588179053672,0 2.727641698666769,0 h23.154342139343296 C27.388566718771465,0 28.60962553667683,1.2210588179053672 28.60962553667683,2.727641698666769 V25.88198383801006 z" fill="#2899C0" id="svg_3"/><path d="M28.60962553667683,25.88198383801006 L28.604475804080227,18.476096171585898 L18.83886622339096,8.709342205875162 l-5.0249946292619185,4.4133208352877675 l-4.04311228084317,6.777048097128007 L18.476096171585898,28.604475804080227 L25.88198383801006,28.60962553667683 C27.388566718771465,28.60962553667683 28.60962553667683,27.388566718771465 28.60962553667683,25.88198383801006 z" opacity="0.2" id="svg_4"/><g id="svg_5"><path d="M8.709342205875162,10.851058773550786 c-0.29811229809217277,-0.29811229809217277 -0.29811229809217277,-0.7821871621727446 0,-1.0802994602649172 l1.0608449148999768,-1.0608449148999768 c0.29811229809217277,-0.29811229809217277 0.7821871621727446,-0.29811229809217277 1.0802994602649172,0 l9.048652364740148,9.048652364740148 c0.29811229809217277,0.29811229809217277 0.29811229809217277,0.7821871621727446 0,1.0802994602649172 l-1.0608449148999768,1.0608449148999768 c-0.29811229809217277,0.29811229809217277 -0.7821871621727446,0.29811229809217277 -1.0802994602649172,0 L8.709342205875162,10.851058773550786 z" fill="#FFFFFF" id="svg_6"/><path d="M17.75856676312604,8.709342205875162 c0.29811229809217277,-0.29811229809217277 0.7821871621727446,-0.29811229809217277 1.0802994602649172,0 l1.0608449148999768,1.0608449148999768 c0.29811229809217277,0.29811229809217277 0.29811229809217277,0.7821871621727446 0,1.0802994602649172 L10.851058773550786,19.90028333080167 c-0.29811229809217277,0.29811229809217277 -0.7821871621727446,0.29811229809217277 -1.0802994602649172,0 l-1.0608449148999768,-1.0608449148999768 c-0.29811229809217277,-0.29811229809217277 -0.29811229809217277,-0.7821871621727446 0,-1.0802994602649172 L17.75856676312604,8.709342205875162 z" fill="#FFFFFF" id="svg_7"/></g></g></g></g></svg>