<svg xmlns="http://www.w3.org/2000/svg" aria-hidden="true" data-prefix="fas" data-icon="list-ul" role="img"
     width="35.649717575005525" height="31.129943515001173" style="">
    <rect id="backgroundrect" width="100%" height="100%" x="0" y="0" fill="none" stroke="none" class="" style=""/>
    <g class="currentLayer" style="">
        <title>Layer 1</title>
        <path fill="currentColor"
              d="M8.747170357438485,8.588273122177796 c0,1.3233924778467892 -1.0727915635204637,2.3961840413672526 -2.3961840413672526,2.3961840413672526 S3.9548022747039795,9.911665600024591 3.9548022747039795,8.588273122177796 s1.0727915635204637,-2.3961840413672526 2.3961840413672526,-2.3961840413672526 s2.3961840413672526,1.0727915635204637 2.3961840413672526,2.3961840413672526 zM6.350986316071232,14.179369218701389 c-1.3233924778467892,0 -2.3961840413672526,1.0727915635204637 -2.3961840413672526,2.3961840413672526 s1.0727915635204637,2.3961840413672526 2.3961840413672526,2.3961840413672526 s2.3961840413672526,-1.0727915635204637 2.3961840413672526,-2.3961840413672526 s-1.0727915635204637,-2.3961840413672526 -2.3961840413672526,-2.3961840413672526 zm0,7.987280137890842 c-1.3233924778467892,0 -2.3961840413672526,1.0727915635204637 -2.3961840413672526,2.3961840413672526 s1.0727915635204637,2.3961840413672526 2.3961840413672526,2.3961840413672526 s2.3961840413672526,-1.0727915635204637 2.3961840413672526,-2.3961840413672526 s-1.0727915635204637,-2.3961840413672526 -2.3961840413672526,-2.3961840413672526 zm4.792368082734505,-11.781238203388991 h17.572016303359852 c0.4411474661158836,0 0.7987280137890844,-0.35758054767320074 0.7987280137890844,-0.7987280137890844 V7.5898631049414504 c0,-0.4411474661158836 -0.35758054767320074,-0.7987280137890844 -0.7987280137890844,-0.7987280137890844 H11.143354398805737 c-0.4411474661158836,0 -0.7987280137890844,0.35758054767320074 -0.7987280137890844,0.7987280137890844 v1.9968200344727105 c0,0.4411474661158836 0.35758054767320074,0.7987280137890844 0.7987280137890844,0.7987280137890844 zm0,7.987280137890842 h17.572016303359852 c0.4411474661158836,0 0.7987280137890844,-0.35758054767320074 0.7987280137890844,-0.7987280137890844 v-1.9968200344727105 c0,-0.4411474661158836 -0.35758054767320074,-0.7987280137890844 -0.7987280137890844,-0.7987280137890844 H11.143354398805737 c-0.4411474661158836,0 -0.7987280137890844,0.35758054767320074 -0.7987280137890844,0.7987280137890844 v1.9968200344727105 c0,0.4411474661158836 0.35758054767320074,0.7987280137890844 0.7987280137890844,0.7987280137890844 zm0,7.987280137890842 h17.572016303359852 c0.4411474661158836,0 0.7987280137890844,-0.35758054767320074 0.7987280137890844,-0.7987280137890844 v-1.9968200344727105 c0,-0.4411474661158836 -0.35758054767320074,-0.7987280137890844 -0.7987280137890844,-0.7987280137890844 H11.143354398805737 c-0.4411474661158836,0 -0.7987280137890844,0.35758054767320074 -0.7987280137890844,0.7987280137890844 v1.9968200344727105 c0,0.4411474661158836 0.35758054767320074,0.7987280137890844 0.7987280137890844,0.7987280137890844 z"
              id="svg_1" class=""/>
    </g>
</svg>